<svg version="1.2" xmlns="http://www.w3.org/2000/svg" viewBox="0 0 123 89" width="30" height="22">
	<title>email-icon-svg</title>
	<style>
		.s0 { fill: #ffffff } 
	</style>
	<path id="Layer" fill-rule="evenodd" class="s0" d="m7 0h108.8q1.4 0 2.7 0.6 1.3 0.5 2.3 1.5 1 1 1.5 2.3 0.5 1.3 0.5 2.7v74.7q0 0.5 0 1.1-0.1 0.5-0.3 1-0.1 0.5-0.4 1-0.2 0.5-0.5 0.9 0 0.2-0.1 0.3-0.1 0.1-0.2 0.2 0 0.2-0.1 0.3-0.1 0.1-0.2 0.2-0.1 0.1-0.2 0.1-0.1 0.1-0.2 0.2 0 0-0.1 0.1-0.1 0-0.2 0.1-0.5 0.4-1 0.7-0.5 0.3-1.1 0.5-0.6 0.2-1.2 0.3-0.6 0.1-1.2 0.1h-108.8q-1.3 0-2.6-0.5-1.3-0.6-2.3-1.6-1-0.9-1.5-2.2-0.5-1.3-0.5-2.7l-0.1-74.8q0.1-1.4 0.6-2.7 0.5-1.3 1.5-2.3 1-1 2.3-1.5 1.3-0.6 2.6-0.6zm-0.2 78.8l36.7-38.2-36.8-31.1zm42.4-33.4l-39.3 38 103 0.1-37.6-38.1-11 9.2q-0.3 0.3-0.8 0.5-0.4 0.1-0.9 0.1-0.5 0-0.9-0.1-0.5-0.2-0.8-0.5zm31.6-4.8l35.4 38.6v-70zm-70.4-35.1l52.1 42.3 49.9-42.3z"/>
</svg>