<svg version="1.2" xmlns="http://www.w3.org/2000/svg" viewBox="0 0 123 111" width="24" height="22">
	<title>floor-plan-icon-svg</title>
	<style>
		.s0 { fill: #ffffff } 
	</style>
	<path id="Layer" fill-rule="evenodd" class="s0" d="m19.3 14.1h100q0.2 0 0.4 0.1 0.1 0 0.3 0 0.2 0 0.3 0.1 0.2 0 0.4 0.1 0.3 0.1 0.6 0.3 0.3 0.2 0.5 0.5 0.3 0.2 0.5 0.5 0.2 0.3 0.3 0.6 0.1 0.2 0.1 0.4 0.1 0.1 0.1 0.3 0 0.2 0 0.4 0.1 0.1 0.1 0.3v89.6q0 0.2-0.1 0.3 0 0.2 0 0.4 0 0.1-0.1 0.3 0 0.2-0.1 0.3-0.1 0.2-0.2 0.4 0 0.1-0.1 0.3-0.1 0.1-0.2 0.2-0.2 0.2-0.3 0.3-0.1 0.1-0.2 0.2-0.2 0.1-0.3 0.2-0.2 0.1-0.3 0.2-0.2 0.1-0.3 0.2-0.2 0-0.4 0.1-0.1 0-0.3 0.1-0.2 0-0.3 0-0.2 0-0.4 0h-102.7q-1 0-1.9-0.2-0.9-0.1-1.8-0.4-0.9-0.3-1.8-0.6-0.9-0.4-1.7-0.9-0.8-0.4-1.6-1-0.9-0.5-1.6-1.2-0.8-0.6-1.4-1.3-0.7-0.7-1.3-1.5-0.5-0.7-0.9-1.4-0.4-0.7-0.7-1.5-0.3-0.7-0.6-1.5-0.2-0.8-0.4-1.6-0.2-0.9-0.3-1.8-0.1-0.9-0.2-1.8-0.1-0.9-0.1-1.8 0-0.9 0.1-1.8c0-21.5-0.9-44.8 0-66 0-5.7-0.1-11.6 1.9-16.2 2-4.6 6.1-8.1 14.3-8.3h0.3q0.5 0 0.9 0.2 0.5 0.2 0.8 0.5 0.4 0.4 0.6 0.8 0.2 0.5 0.2 1v11.6zm-14 68.1l0.2-0.2q0.2-0.2 0.4-0.4 0.2-0.1 0.4-0.3 0.2-0.1 0.4-0.3 0.2-0.1 0.5-0.3 0.4-0.3 0.8-0.5 0.5-0.3 1-0.5 0.4-0.2 0.9-0.4 0.5-0.2 1-0.4 0.4-0.1 0.8-0.3 0.5-0.1 0.9-0.2 0.5-0.1 0.9-0.2 0.4-0.1 0.9-0.2v-72.9c-9.3 1.4-9.2 10.7-9.2 19.4 0.3 12-0.5 43.6 0 57.7zm14-2.1q0 0.2 0 0.4-0.1 0.2-0.1 0.4-0.1 0.2-0.2 0.3-0.1 0.2-0.2 0.4-0.2 0.1-0.4 0.3-0.1 0.1-0.3 0.2-0.2 0.1-0.4 0.2-0.2 0-0.4 0.1-0.6 0.1-1.1 0.1-0.5 0.1-1 0.2-0.5 0.2-1 0.3-0.5 0.1-0.9 0.3-0.5 0.1-0.9 0.2-0.4 0.2-0.8 0.4-0.5 0.2-0.9 0.4-0.4 0.2-0.7 0.5-0.4 0.2-0.8 0.5-0.3 0.3-0.6 0.6-0.3 0.3-0.6 0.6-0.3 0.3-0.6 0.7-0.3 0.4-0.6 0.9-0.3 0.4-0.6 0.9-0.2 0.5-0.5 1-0.2 0.5-0.4 1 0 0.7 0 1.3 0 0.7 0 1.4 0.1 0.7 0.2 1.4 0.1 0.7 0.2 1.4 0.1 0.5 0.3 1.1 0.2 0.6 0.4 1.1 0.2 0.6 0.5 1.1 0.3 0.5 0.6 1 0.4 0.5 0.8 0.9 0.4 0.5 0.8 0.9 0.5 0.3 1 0.7 0.4 0.3 1 0.6 0.6 0.4 1.3 0.6 0.7 0.3 1.4 0.6 0.7 0.2 1.5 0.4 0.7 0.2 1.4 0.3h101.2v-86.8h-98.5v61.1zm75.4 11.7c-0.7 0-1.3-0.2-1.8-0.7-0.5-0.5-0.7-1.1-0.7-1.8 0-0.6 0.2-1.3 0.7-1.7 0.5-0.5 1.1-0.8 1.7-0.8h4.8v-18.8h-4.6c-0.7 0-1.3-0.3-1.8-0.8-0.4-0.4-0.7-1.1-0.7-1.7 0-0.7 0.3-1.3 0.7-1.8 0.5-0.5 1.1-0.7 1.8-0.7h4.6v-26.5h-19.6v26.5h4.7c0.6 0 1.3 0.3 1.7 0.8 0.5 0.4 0.8 1.1 0.8 1.7 0 0.7-0.3 1.3-0.8 1.8-0.4 0.4-1.1 0.7-1.7 0.7h-4.7v5.2c0 0.7-0.3 1.3-0.7 1.8-0.5 0.4-1.1 0.7-1.8 0.7-0.6 0-1.3-0.3-1.7-0.7-0.5-0.5-0.8-1.1-0.8-1.8v-36.7h-33.5v17.8h16.4q0.5 0 1 0.2 0.4 0.2 0.8 0.5 0.3 0.4 0.5 0.8 0.2 0.5 0.2 1v30h14.6v-4.6c0-0.7 0.2-1.3 0.7-1.8 0.5-0.4 1.1-0.7 1.8-0.7 0.6 0 1.3 0.3 1.7 0.7 0.5 0.5 0.7 1.1 0.7 1.8l0.1 4.6h5.8c0.7 0.1 1.3 0.3 1.8 0.8 0.5 0.5 0.7 1.1 0.7 1.7 0 0.7-0.2 1.3-0.7 1.8-0.5 0.5-1.1 0.7-1.8 0.7h-46.8q-0.5 0-0.9-0.1-0.5-0.2-0.8-0.6-0.4-0.3-0.6-0.8-0.2-0.4-0.2-0.9v-55.4q0-0.5 0.2-1 0.2-0.4 0.6-0.8 0.3-0.3 0.8-0.5 0.4-0.2 0.9-0.2h63.2q0.5 0 0.9 0.2 0.5 0.2 0.8 0.5 0.3 0.4 0.5 0.8 0.2 0.5 0.2 1v55.3q0 0.5-0.2 1-0.2 0.4-0.5 0.8-0.3 0.3-0.8 0.5-0.4 0.2-0.9 0.2zm-53.4-32.5v27.5h14v-27.5z"/>
</svg>