<svg version="1.2" xmlns="http://www.w3.org/2000/svg" viewBox="0 0 203 203" width="22" height="22">
	<title>phone-call-svgrepo-com-svg</title>
	<style>
		.s0 { fill: #ffffff } 
	</style>
	<g id="Layer">
		<g id="Layer">
			<path id="Layer" fill-rule="evenodd" class="s0" d="m197.6 183.1l-8.9 8.8-0.2-0.2c-3.8 2.9-8.1 5.4-12.8 7.2-4.3 1.7-8.6 2.8-13 3.3-2 0.2-49.4 4.7-108.1-54-42.4-42.5-58.1-73.8-54-108.1 0.5-4.2 1.6-8.5 3.3-13 1.8-4.7 4.3-9 7.2-12.8l-0.2-0.2 8.8-8.9c6.5-6.5 16.8-6.6 23-0.4l31.3 31.3c6.2 6.2 6 16.5-0.4 23l-5.2 5.2-10.6 10.5q0.8 1.5 1.7 3.1c5.5 9.9 13.1 23.6 27.5 38 14.3 14.3 27.9 21.9 37.9 27.4q1.6 0.9 3.1 1.7l15.8-15.8c6.4-6.4 16.7-6.6 23-0.4l31.2 31.3c6.3 6.2 6.1 16.6-0.4 23zm-6.5-16.1l-31.3-31.2c-2.4-2.4-6.5-2.2-9.1 0.4l-21.1 21.1-3.3-1.9q-2.8-1.7-6.2-3.5c-10.4-5.8-24.8-13.8-40.1-29.1-15.3-15.3-23.3-29.7-29.1-40.2q-1.8-3.3-3.4-6.1l-2-3.3 21.1-21.1c2.7-2.6 2.9-6.7 0.5-9.1l-31.3-31.3c-2.4-2.4-6.5-2.2-9.1 0.4l-5.5 5.5c-2.4 2.5-5.7 6.8-8.2 13.1-1.4 3.6-2.2 7.1-2.6 10.6-3.2 26.1 4.3 53.1 51.2 99.9 55.1 55.1 99.6 51.3 100 51.2 3.6-0.4 7.1-1.3 10.6-2.6 6.2-2.5 10.5-5.8 13-8.2l1.5-1.5 4-3.9c2.6-2.7 2.8-6.8 0.4-9.2z"/>
		</g>
	</g>
</svg>