<svg version="1.2" xmlns="http://www.w3.org/2000/svg" viewBox="0 0 228 228" width="22" height="22">
	<title>share-svgrepo-com-svg</title>
	<style>
		.s0 { fill: #ffffff } 
	</style>
	<path id="Layer" fill-rule="evenodd" class="s0" d="m218.8 184.3c0 23.7-19.3 42.9-42.9 42.9-23.6 0-42.9-19.2-42.9-42.9 0-5 0.9-9.8 2.5-14.3l-51.2-29c-7.9 9.4-19.7 15.5-33 15.5-23.6 0-42.8-19.3-42.8-42.9 0-23.6 19.2-42.9 42.8-42.9 13.3 0 25.1 6.1 33 15.6l51.2-29.1c-1.6-4.5-2.5-9.3-2.5-14.3 0-23.7 19.3-42.9 42.9-42.9 23.6 0 42.9 19.2 42.9 42.9 0 23.6-19.3 42.8-42.9 42.8-13.3 0-25.1-6-33-15.5l-51.2 29.1c1.6 4.5 2.5 9.3 2.5 14.3 0 5-0.9 9.8-2.5 14.3l51.2 29.1c7.9-9.5 19.7-15.5 33-15.5 23.6 0 42.9 19.2 42.9 42.8zm-70.8-141.4c0 15.3 12.5 27.8 27.9 27.8 15.4 0 27.9-12.5 27.9-27.8 0-15.4-12.5-27.9-27.9-27.9-15.4 0-27.9 12.5-27.9 27.9zm-68.8 70.7c0-15.4-12.5-27.9-27.9-27.9-15.3 0-27.8 12.5-27.8 27.9 0 15.4 12.5 27.9 27.8 27.9 15.4 0 27.9-12.5 27.9-27.9zm124.6 70.8c0-15.4-12.5-27.9-27.9-27.9-15.4 0-27.9 12.5-27.9 27.9 0 15.3 12.5 27.8 27.9 27.8 15.4 0 27.9-12.5 27.9-27.8z"/>
</svg>