<svg version="1.2" xmlns="http://www.w3.org/2000/svg" viewBox="0 0 76 76" width="24" height="24">
	<title>Video_camera_icon-svg</title>
	<style>
		.s0 { fill: #ffffff } 
	</style>
	<g id="_x37_7_Essential_Icons_72_">
		<path id="Video_Camera" fill-rule="evenodd" class="s0" d="m76 16v43.9c0 1-1.2 2.7-3.1 1.7l-16.9-10.9v3.3c0 4.4-3.6 8-8 8h-40c-4.4 0-8-3.6-8-8v-32c0-4.4 3.6-8 8-8h40c4.4 0 8 3.6 8 8v3.3l16.9-10.9c2-1.2 3.1 0.6 3.1 1.6zm-24 6c0-2.2-1.8-4-4-4h-40c-2.2 0-4 1.8-4 4v32c0 2.2 1.8 4 4 4h40c2.2 0 4-1.8 4-4zm20-2.3l-16 10.3v16l16 10.3z"/>
	</g>
	<g id="Layer">
	</g>
	<g id="Layer">
	</g>
	<g id="Layer">
	</g>
	<g id="Layer">
	</g>
	<g id="Layer">
	</g>
	<g id="Layer">
	</g>
	<g id="Layer">
	</g>
	<g id="Layer">
	</g>
	<g id="Layer">
	</g>
	<g id="Layer">
	</g>
	<g id="Layer">
	</g>
	<g id="Layer">
	</g>
	<g id="Layer">
	</g>
	<g id="Layer">
	</g>
	<g id="Layer">
	</g>
</svg>